# xmcd
#
# Track frame offsets:
#	150
#	10702
#	23507
#	39127
#	52540
#	62360
#	73470
#	87487
#	98522
#	109612
#	122642
#	136947
#	146810
#	159305
#
# Disc length: 2331 seconds
#
# Revision: 1
# Processed by: cddbd v1.5.1PL0 Copyright (c) Steve Scherf et al.
# Submitted via: audiograbber 1.83.01
#
DISCID=a409190e
DTITLE=Tom Astor - Highway-Helden
DYEAR=1900
DGENRE=Country
TTITLE0=Highway-Helden
TTITLE1=Ich bin neugeboren (Blaze of Glory)
TTITLE2=Abschied
TTITLE3=Hör ' mal zu , Herr Minister (ich brauch 'Job)
TTITLE4=Sicht weg - Gas weg
TTITLE5=Ist das ein Leben - so hart und so schön
TTITLE6=Trucker Lady
TTITLE7=Hey , altes Haus
TTITLE8=Ist lange her
TTITLE9=Buchstabiere LKW
TTITLE10=Ich bin ein Gefangener der Autobahn
TTITLE11=Danke Brummi
TTITLE12=Von New York City nach L.A.
TTITLE13=Ich hau' den Lukas (Mr. Nothingoesright)
EXTD=
EXTT0=
EXTT1=
EXTT2=
EXTT3=
EXTT4=
EXTT5=
EXTT6=
EXTT7=
EXTT8=
EXTT9=
EXTT10=
EXTT11=
EXTT12=
EXTT13=
PLAYORDER=
